<svg width="500" height="107" viewBox="0 0 500 107" fill="none" xmlns="http://www.w3.org/2000/svg">
<rect x="14" y="1" width="70" height="70" rx="35" stroke="#A3A3A3" stroke-width="2"/>
<path d="M57.0533 38.0668C56.4933 38.6135 56.1733 39.4002 56.2533 40.2402C56.3733 41.6802 57.6933 42.7335 59.1333 42.7335H61.6666V44.3202C61.6666 47.0802 59.4133 49.3335 56.6533 49.3335H41.3466C38.5866 49.3335 36.3333 47.0802 36.3333 44.3202V35.3468C36.3333 32.5868 38.5866 30.3335 41.3466 30.3335H56.6533C59.4133 30.3335 61.6666 32.5868 61.6666 35.3468V37.2668H58.9733C58.2266 37.2668 57.5466 37.5601 57.0533 38.0668Z" stroke="#A3A3A3" stroke-width="1.5" stroke-linecap="round" stroke-linejoin="round"/>
<path d="M36.3333 36.5467V30.4535C36.3333 28.8668 37.3066 27.4534 38.7866 26.8934L49.3733 22.8934C51.0266 22.2667 52.8 23.4935 52.8 25.2668V30.3334" stroke="#A3A3A3" stroke-width="1.5" stroke-linecap="round" stroke-linejoin="round"/>
<path d="M63.0784 38.627V41.3738C63.0784 42.1071 62.4917 42.7071 61.7451 42.7337H59.1317C57.6917 42.7337 56.3717 41.6804 56.2517 40.2404C56.1717 39.4004 56.4917 38.6137 57.0517 38.0671C57.5451 37.5604 58.2251 37.2671 58.9717 37.2671H61.7451C62.4917 37.2938 63.0784 37.8937 63.0784 38.627Z" stroke="#A3A3A3" stroke-width="1.5" stroke-linecap="round" stroke-linejoin="round"/>
<path d="M42.3333 36H51.6666" stroke="#A3A3A3" stroke-width="1.5" stroke-linecap="round" stroke-linejoin="round"/>
<path d="M3.61447 95.338C2.89447 96.886 2.53447 98.176 2.53447 99.208C2.53447 100.3 2.80447 101.188 3.34447 101.872C3.89647 102.568 4.70047 102.916 5.75647 102.916H7.70047C8.61247 102.916 9.35047 102.778 9.91447 102.502C10.4785 102.226 10.7605 101.878 10.7605 101.458C10.7605 101.11 10.5445 100.816 10.1125 100.576C9.42847 100.192 8.27047 100 6.63847 100V98.38H12.6145L12.7045 99.19L12.6145 100H11.6245C11.8045 100.144 11.9425 100.336 12.0385 100.576C12.1345 100.816 12.1825 101.08 12.1825 101.368C12.1825 101.884 12.0325 102.382 11.7325 102.862C11.4325 103.342 10.9465 103.738 10.2745 104.05C9.61447 104.374 8.75647 104.536 7.70047 104.536H5.75647C4.80847 104.536 3.98047 104.29 3.27247 103.798C2.57647 103.306 2.04247 102.652 1.67047 101.836C1.31047 101.032 1.13047 100.168 1.13047 99.244C1.13047 97.96 1.52647 96.43 2.31847 94.654L3.61447 95.338ZM18.1625 89.218L12.4925 91.72L15.1205 95.05L15.1745 95.122C16.0145 96.202 16.6085 96.946 16.9565 97.354C17.3165 97.75 17.6465 98.02 17.9465 98.164C18.2585 98.308 18.6665 98.38 19.1705 98.38H19.5125L19.6025 99.19L19.5125 100H19.1705C18.4385 100 17.8325 99.868 17.3525 99.604C16.8845 99.34 16.3565 98.86 15.7685 98.164C15.6005 98.716 15.2885 99.16 14.8325 99.496C14.3765 99.832 13.7945 100 13.0865 100H9.72055V98.38H13.0865C13.6025 98.38 13.9925 98.29 14.2565 98.11C14.5325 97.93 14.6705 97.69 14.6705 97.39C14.6705 97.018 14.4845 96.61 14.1125 96.166L10.9625 92.35L11.3945 90.46L17.5865 87.742L18.1625 89.218ZM19.3358 98.38H21.3158C21.8318 98.38 22.2158 98.272 22.4678 98.056C22.7198 97.828 22.8458 97.522 22.8458 97.138C22.8458 96.826 22.7858 96.34 22.6658 95.68C22.5578 95.008 22.4318 94.366 22.2878 93.754L23.6558 93.394C23.7998 94.006 23.9318 94.678 24.0518 95.41C24.1838 96.142 24.2498 96.712 24.2498 97.12C24.2498 97.612 24.1358 98.08 23.9078 98.524C23.6798 98.968 23.3438 99.328 22.8998 99.604C22.4558 99.868 21.9278 100 21.3158 100H19.3358V98.38ZM21.2798 89.47H23.0798V91.27H21.2798V89.47ZM29.9267 100C28.7387 100 27.9167 99.682 27.4607 99.046C27.0047 98.398 26.7767 97.45 26.7767 96.202L26.7587 88.318H28.1627L28.1807 96.202C28.1807 96.85 28.2167 97.318 28.2887 97.606C28.3727 97.894 28.5287 98.098 28.7567 98.218C28.9967 98.326 29.3867 98.38 29.9267 98.38H30.1967L30.2867 99.208L30.1967 100H29.9267ZM30.0233 98.38H32.0033C32.5193 98.38 32.9033 98.272 33.1553 98.056C33.4073 97.828 33.5333 97.522 33.5333 97.138C33.5333 96.826 33.4733 96.34 33.3533 95.68C33.2453 95.008 33.1193 94.366 32.9753 93.754L34.3433 93.394C34.4873 94.006 34.6193 94.678 34.7393 95.41C34.8713 96.142 34.9373 96.712 34.9373 97.12C34.9373 97.612 34.8233 98.08 34.5953 98.524C34.3673 98.968 34.0313 99.328 33.5873 99.604C33.1433 99.868 32.6153 100 32.0033 100H30.0233V98.38ZM30.4733 102.736H32.2733V104.536H30.4733V102.736ZM44.5562 100C43.9082 100 43.3322 99.862 42.8282 99.586C42.3242 99.298 41.9282 98.92 41.6402 98.452C41.3642 97.972 41.2262 97.444 41.2262 96.868C41.2262 96.7 41.2322 96.574 41.2442 96.49C41.3042 95.938 41.5022 94.966 41.8382 93.574L43.1522 93.916C43.1282 94.024 43.0322 94.438 42.8642 95.158C42.7082 95.866 42.6182 96.364 42.5942 96.652C42.5822 96.712 42.5762 96.79 42.5762 96.886C42.5762 97.354 42.7442 97.72 43.0802 97.984C43.4282 98.248 43.9202 98.38 44.5562 98.38H52.3322C52.9202 98.38 53.3582 98.218 53.6462 97.894C53.9462 97.57 54.0962 97.18 54.0962 96.724C54.0962 96.196 53.9102 95.098 53.5382 93.43L54.9062 93.07C55.3022 94.786 55.5002 96.004 55.5002 96.724C55.5002 97.228 55.3742 97.738 55.1222 98.254C54.8702 98.758 54.5042 99.178 54.0242 99.514C53.5442 99.838 52.9802 100 52.3322 100H44.5562ZM45.9062 92.242H47.7062V94.042H45.9062V92.242ZM49.1282 92.242H50.9282V94.042H49.1282V92.242ZM61.1806 100C59.9926 100 59.1706 99.682 58.7146 99.046C58.2586 98.398 58.0306 97.45 58.0306 96.202L58.0126 88.318H59.4166L59.4346 96.202C59.4346 96.85 59.4706 97.318 59.5426 97.606C59.6266 97.894 59.7826 98.098 60.0106 98.218C60.2506 98.326 60.6406 98.38 61.1806 98.38H61.4506L61.5406 99.208L61.4506 100H61.1806ZM69.8632 100H61.2772V98.38H64.1932C63.5572 97.744 63.2392 96.994 63.2392 96.13C63.2392 95.53 63.3832 94.984 63.6712 94.492C63.9592 93.988 64.3492 93.592 64.8412 93.304C65.3332 93.004 65.8672 92.854 66.4432 92.854C66.9832 92.854 67.4332 92.932 67.7932 93.088C68.1532 93.244 68.6032 93.508 69.1432 93.88L69.5212 94.132L68.8192 95.284C68.1352 94.912 67.6552 94.672 67.3792 94.564C67.1152 94.444 66.8032 94.384 66.4432 94.384C65.9512 94.384 65.5252 94.552 65.1652 94.888C64.8172 95.224 64.6432 95.638 64.6432 96.13C64.6432 96.79 64.9312 97.33 65.5072 97.75C66.0952 98.17 66.9892 98.38 68.1892 98.38H69.8632V100ZM81.0675 100C80.6835 100 80.2995 99.91 79.9155 99.73C79.5315 99.538 79.2015 99.256 78.9255 98.884C78.6375 99.256 78.2895 99.538 77.8815 99.73C77.4735 99.91 77.0775 100 76.6935 100H71.6715V98.38H76.5675C77.1075 98.38 77.5095 98.266 77.7735 98.038C78.0495 97.798 78.1875 97.384 78.1875 96.796V88.318H79.5735V96.796C79.5735 97.312 79.6995 97.708 79.9515 97.984C80.2035 98.248 80.5755 98.38 81.0675 98.38H81.7335L81.8235 99.19L81.7335 100H81.0675ZM73.6875 88.516L74.1735 96.958L72.7695 97.066L72.2835 88.624L73.6875 88.516ZM81.5448 98.38H83.6328L84.1008 97.678L84.0828 88.318H85.4868L85.5048 95.536L85.7208 95.194C86.3328 94.27 86.9208 93.61 87.4848 93.214C88.0608 92.818 88.7508 92.62 89.5548 92.62C90.2268 92.62 90.8028 92.794 91.2828 93.142C91.7748 93.49 92.1468 93.958 92.3988 94.546C92.6628 95.122 92.7948 95.752 92.7948 96.436C92.7948 97.156 92.6268 97.786 92.2908 98.326C91.9548 98.866 91.5048 99.28 90.9408 99.568C90.3768 99.856 89.7648 100 89.1048 100H81.5448V98.38ZM89.1048 98.38C89.8248 98.38 90.3828 98.218 90.7788 97.894C91.1868 97.558 91.3908 97.072 91.3908 96.436C91.3908 94.972 90.7788 94.24 89.5548 94.24C89.1708 94.24 88.8468 94.294 88.5828 94.402C88.3188 94.51 88.0608 94.696 87.8088 94.96C87.5568 95.224 87.2448 95.614 86.8728 96.13L85.2708 98.38H89.1048ZM95.3134 88.318H96.7174L96.7354 100H95.3314L95.3134 88.318Z" fill="#A3A3A3"/>
<path d="M278 35L396 35" stroke="#FDBA74" stroke-width="2" stroke-linecap="round"/>
<path d="M83 35H207" stroke="#A3A3A3" stroke-width="2" stroke-linecap="round" stroke-dasharray="6 6"/>
<rect x="394.5" y="1" width="70" height="70" rx="35" fill="#FDBA74"/>
<rect x="394.5" y="1" width="70" height="70" rx="35" stroke="#FDBA74" stroke-width="2"/>
<path d="M422.433 32.3467L429.5 36.44L436.513 32.3733" stroke="white" stroke-width="1.5" stroke-linecap="round" stroke-linejoin="round"/>
<path d="M429.5 43.6934V36.4268" stroke="white" stroke-width="1.5" stroke-linecap="round" stroke-linejoin="round"/>
<path d="M427.847 28.3868L423.58 30.7601C422.62 31.2935 421.82 32.6401 421.82 33.7468V38.2668C421.82 39.3735 422.607 40.7201 423.58 41.2535L427.847 43.6268C428.753 44.1335 430.247 44.1335 431.167 43.6268L435.433 41.2535C436.393 40.7201 437.193 39.3735 437.193 38.2668V33.7335C437.193 32.6268 436.407 31.2801 435.433 30.7468L431.167 28.3735C430.247 27.8668 428.753 27.8668 427.847 28.3868Z" stroke="white" stroke-width="1.5" stroke-linecap="round" stroke-linejoin="round"/>
<path d="M442.833 40C442.833 45.16 438.66 49.3333 433.5 49.3333L434.9 47" stroke="white" stroke-width="1.5" stroke-linecap="round" stroke-linejoin="round"/>
<path d="M416.167 31.9998C416.167 26.8398 420.34 22.6665 425.5 22.6665L424.1 24.9998" stroke="white" stroke-width="1.5" stroke-linecap="round" stroke-linejoin="round"/>
<path d="M367.902 95.338C367.182 96.886 366.822 98.176 366.822 99.208C366.822 100.3 367.092 101.188 367.632 101.872C368.184 102.568 368.988 102.916 370.044 102.916H371.988C372.9 102.916 373.638 102.778 374.202 102.502C374.766 102.226 375.048 101.878 375.048 101.458C375.048 101.11 374.832 100.816 374.4 100.576C373.716 100.192 372.558 100 370.926 100V98.38H376.902L376.992 99.19L376.902 100H375.912C376.092 100.144 376.23 100.336 376.326 100.576C376.422 100.816 376.47 101.08 376.47 101.368C376.47 101.884 376.32 102.382 376.02 102.862C375.72 103.342 375.234 103.738 374.562 104.05C373.902 104.374 373.044 104.536 371.988 104.536H370.044C369.096 104.536 368.268 104.29 367.56 103.798C366.864 103.306 366.33 102.652 365.958 101.836C365.598 101.032 365.418 100.168 365.418 99.244C365.418 97.96 365.814 96.43 366.606 94.654L367.902 95.338ZM385.301 100H376.715V98.38H379.631C378.995 97.744 378.677 96.994 378.677 96.13C378.677 95.53 378.821 94.984 379.109 94.492C379.397 93.988 379.787 93.592 380.279 93.304C380.771 93.004 381.305 92.854 381.881 92.854C382.421 92.854 382.871 92.932 383.231 93.088C383.591 93.244 384.041 93.508 384.581 93.88L384.959 94.132L384.257 95.284C383.573 94.912 383.093 94.672 382.817 94.564C382.553 94.444 382.241 94.384 381.881 94.384C381.389 94.384 380.963 94.552 380.603 94.888C380.255 95.224 380.081 95.638 380.081 96.13C380.081 96.79 380.369 97.33 380.945 97.75C381.533 98.17 382.427 98.38 383.627 98.38H385.301V100ZM389.269 102.934C390.109 102.934 390.757 102.832 391.213 102.628C391.681 102.436 392.005 102.136 392.185 101.728C392.365 101.32 392.455 100.78 392.455 100.108V100H390.475C389.467 100 388.651 99.7 388.027 99.1C387.415 98.5 387.109 97.66 387.109 96.58C387.109 95.848 387.247 95.182 387.523 94.582C387.811 93.982 388.207 93.508 388.711 93.16C389.227 92.812 389.809 92.638 390.457 92.638C391.141 92.638 391.741 92.806 392.257 93.142C392.773 93.478 393.169 93.946 393.445 94.546C393.721 95.134 393.859 95.812 393.859 96.58V98.38H394.867L394.975 99.208L394.867 100H393.859V100.108C393.859 101.476 393.493 102.556 392.761 103.348C392.041 104.152 390.877 104.554 389.269 104.554H387.343V102.934H389.269ZM388.513 96.58C388.513 97.24 388.669 97.708 388.981 97.984C389.293 98.248 389.791 98.38 390.475 98.38H392.455V96.58C392.455 95.848 392.287 95.278 391.951 94.87C391.615 94.45 391.117 94.24 390.457 94.24C389.845 94.24 389.365 94.456 389.017 94.888C388.681 95.308 388.513 95.872 388.513 96.58ZM394.608 98.38H396.84C397.668 98.38 398.436 98.278 399.144 98.074C399.864 97.858 400.506 97.6 401.07 97.3C401.646 97 402.432 96.55 403.428 95.95C402.024 95.362 400.95 94.93 400.206 94.654C399.474 94.378 398.964 94.24 398.676 94.24C398.316 94.24 398.034 94.324 397.83 94.492C397.638 94.648 397.452 94.972 397.272 95.464L395.904 95.032C396.456 93.424 397.38 92.62 398.676 92.62C399.084 92.62 399.708 92.776 400.548 93.088C401.4 93.4 402.582 93.874 404.094 94.51L404.976 94.87L405.336 96.58L404.382 97.174C403.338 97.834 402.474 98.35 401.79 98.722C401.106 99.094 400.35 99.4 399.522 99.64C398.706 99.88 397.812 100 396.84 100H394.608V98.38ZM399.054 102.268H400.854V104.068H399.054V102.268ZM410.324 94.456V97.012C410.324 97.504 410.444 97.858 410.684 98.074C410.924 98.278 411.302 98.38 411.818 98.38H411.998L412.106 99.208L411.998 100H411.818C411.206 100 410.708 99.832 410.324 99.496V99.532C410.324 101.152 409.916 102.388 409.1 103.24C408.284 104.104 407.108 104.536 405.572 104.536H404.438V102.916H405.572C406.772 102.916 407.63 102.658 408.146 102.142C408.662 101.626 408.92 100.756 408.92 99.532V94.456H410.324ZM411.818 98.38H412.322C412.886 98.38 413.234 98.128 413.366 97.624L413.942 95.554C414.206 94.618 414.614 93.886 415.166 93.358C415.718 92.818 416.384 92.548 417.164 92.548C417.788 92.548 418.34 92.734 418.82 93.106C419.3 93.466 419.672 93.958 419.936 94.582C420.2 95.194 420.332 95.86 420.332 96.58C420.332 97.468 420.206 98.2 419.954 98.776C419.702 99.34 419.372 99.748 418.964 100C418.568 100.264 418.148 100.396 417.704 100.396C417.248 100.396 416.792 100.306 416.336 100.126C415.88 99.958 415.16 99.622 414.176 99.118C413.936 99.394 413.654 99.61 413.33 99.766C413.006 99.922 412.67 100 412.322 100H411.818V98.38ZM414.842 97.678C415.706 98.122 416.318 98.416 416.678 98.56C417.038 98.704 417.38 98.776 417.704 98.776C418.112 98.776 418.418 98.626 418.622 98.326C418.826 98.014 418.928 97.432 418.928 96.58C418.928 95.824 418.778 95.236 418.478 94.816C418.178 94.384 417.74 94.168 417.164 94.168C416.732 94.168 416.354 94.318 416.03 94.618C415.718 94.918 415.478 95.374 415.31 95.986L414.842 97.678ZM429.955 100C429.307 100 428.731 99.862 428.227 99.586C427.723 99.298 427.327 98.92 427.039 98.452C426.763 97.972 426.625 97.444 426.625 96.868C426.625 96.7 426.631 96.574 426.643 96.49C426.703 95.938 426.901 94.966 427.237 93.574L428.551 93.916C428.527 94.024 428.431 94.438 428.263 95.158C428.107 95.866 428.017 96.364 427.993 96.652C427.981 96.712 427.975 96.79 427.975 96.886C427.975 97.354 428.143 97.72 428.479 97.984C428.827 98.248 429.319 98.38 429.955 98.38H437.731C438.343 98.38 438.799 98.254 439.099 98.002C439.399 97.75 439.549 97.348 439.549 96.796V94.456H440.953V97.012C440.953 97.504 441.073 97.858 441.313 98.074C441.553 98.278 441.931 98.38 442.447 98.38H443.113L443.203 99.154L443.113 100H442.447C442.063 100 441.661 99.904 441.241 99.712C440.821 99.52 440.467 99.232 440.179 98.848C439.891 99.22 439.525 99.508 439.081 99.712C438.637 99.904 438.187 100 437.731 100H429.955ZM431.611 92.278H433.411V94.078H431.611V92.278ZM434.833 92.278H436.633V94.078H434.833V92.278ZM442.931 98.38H444.029C444.605 98.38 445.013 98.254 445.253 98.002C445.505 97.75 445.631 97.348 445.631 96.796V94.456H447.035V97.012C447.035 97.492 447.149 97.84 447.377 98.056C447.617 98.26 447.983 98.368 448.475 98.38C449.051 98.368 449.459 98.242 449.699 98.002C449.951 97.75 450.077 97.348 450.077 96.796V94.456H451.481V97.012C451.481 97.492 451.595 97.84 451.823 98.056C452.063 98.26 452.429 98.368 452.921 98.38C453.425 98.368 453.797 98.254 454.037 98.038C454.277 97.822 454.397 97.522 454.397 97.138C454.397 96.826 454.337 96.34 454.217 95.68C454.109 95.008 453.983 94.366 453.839 93.754L455.207 93.394C455.351 94.006 455.483 94.678 455.603 95.41C455.735 96.142 455.801 96.712 455.801 97.12C455.801 97.6 455.687 98.062 455.459 98.506C455.243 98.95 454.913 99.31 454.469 99.586C454.037 99.862 453.521 100 452.921 100C452.537 100 452.141 99.91 451.733 99.73C451.337 99.538 450.995 99.244 450.707 98.848C450.119 99.616 449.375 100 448.475 100C448.079 100 447.677 99.898 447.269 99.694C446.861 99.478 446.525 99.196 446.261 98.848C445.973 99.232 445.637 99.52 445.253 99.712C444.869 99.904 444.461 100 444.029 100H442.931V98.38ZM458.317 88.318H459.721L459.739 100H458.335L458.317 88.318ZM464.064 102.934C464.904 102.934 465.552 102.832 466.008 102.628C466.476 102.436 466.8 102.136 466.98 101.728C467.16 101.32 467.25 100.78 467.25 100.108V100H465.27C464.262 100 463.446 99.7 462.822 99.1C462.21 98.5 461.904 97.66 461.904 96.58C461.904 95.848 462.042 95.182 462.318 94.582C462.606 93.982 463.002 93.508 463.506 93.16C464.022 92.812 464.604 92.638 465.252 92.638C465.936 92.638 466.536 92.806 467.052 93.142C467.568 93.478 467.964 93.946 468.24 94.546C468.516 95.134 468.654 95.812 468.654 96.58V98.38H469.662L469.77 99.208L469.662 100H468.654V100.108C468.654 101.476 468.288 102.556 467.556 103.348C466.836 104.152 465.672 104.554 464.064 104.554H462.138V102.934H464.064ZM463.308 96.58C463.308 97.24 463.464 97.708 463.776 97.984C464.088 98.248 464.586 98.38 465.27 98.38H467.25V96.58C467.25 95.848 467.082 95.278 466.746 94.87C466.41 94.45 465.912 94.24 465.252 94.24C464.64 94.24 464.16 94.456 463.812 94.888C463.476 95.308 463.308 95.872 463.308 96.58ZM469.402 98.38H471.634C472.462 98.38 473.23 98.278 473.938 98.074C474.658 97.858 475.3 97.6 475.864 97.3C476.44 97 477.226 96.55 478.222 95.95C476.818 95.362 475.744 94.93 475 94.654C474.268 94.378 473.758 94.24 473.47 94.24C473.11 94.24 472.828 94.324 472.624 94.492C472.432 94.648 472.246 94.972 472.066 95.464L470.698 95.032C471.25 93.424 472.174 92.62 473.47 92.62C473.878 92.62 474.502 92.776 475.342 93.088C476.194 93.4 477.376 93.874 478.888 94.51L479.77 94.87L480.13 96.58L479.176 97.174C478.132 97.834 477.268 98.35 476.584 98.722C475.9 99.094 475.144 99.4 474.316 99.64C473.5 99.88 472.606 100 471.634 100H469.402V98.38ZM472.858 89.11H474.658V90.91H472.858V89.11ZM485.118 94.456V99.532C485.118 101.152 484.71 102.388 483.894 103.24C483.078 104.104 481.902 104.536 480.366 104.536H479.232V102.916H480.366C481.566 102.916 482.424 102.658 482.94 102.142C483.456 101.626 483.714 100.756 483.714 99.532V94.456H485.118ZM493.526 95.41C493.91 95.998 494.102 96.646 494.102 97.354C494.102 97.894 493.976 98.344 493.724 98.704C493.376 99.196 492.956 99.538 492.464 99.73C491.972 99.91 491.432 100 490.844 100H489.872C489.224 100 488.636 99.91 488.108 99.73C487.592 99.538 487.166 99.322 486.83 99.082L487.568 97.714C487.604 97.726 487.718 97.798 487.91 97.93C488.114 98.05 488.39 98.158 488.738 98.254C489.086 98.338 489.464 98.38 489.872 98.38H490.844C491.276 98.38 491.63 98.338 491.906 98.254C492.194 98.158 492.416 97.996 492.572 97.768C492.68 97.624 492.734 97.462 492.734 97.282C492.734 97.018 492.602 96.682 492.338 96.274C491.21 94.498 490.298 93.094 489.602 92.062L490.79 91.162L493.526 95.41Z" fill="#FDBA74"/>
<rect x="207.5" y="1" width="70" height="70" rx="35" stroke="#F97316" stroke-width="2"/>
<path d="M255.833 31.0265V25.6398C255.833 23.5198 254.98 22.6665 252.86 22.6665H247.473C245.353 22.6665 244.5 23.5198 244.5 25.6398V31.0265C244.5 33.1465 245.353 33.9998 247.473 33.9998H252.86C254.98 33.9998 255.833 33.1465 255.833 31.0265Z" stroke="#F97316" stroke-width="1.5" stroke-linecap="round" stroke-linejoin="round"/>
<path d="M240.5 31.3598V25.3065C240.5 23.4265 239.647 22.6665 237.527 22.6665H232.14C230.02 22.6665 229.167 23.4265 229.167 25.3065V31.3465C229.167 33.2398 230.02 33.9865 232.14 33.9865H237.527C239.647 33.9998 240.5 33.2398 240.5 31.3598Z" stroke="#F97316" stroke-width="1.5" stroke-linecap="round" stroke-linejoin="round"/>
<path d="M240.5 46.36V40.9733C240.5 38.8533 239.647 38 237.527 38H232.14C230.02 38 229.167 38.8533 229.167 40.9733V46.36C229.167 48.48 230.02 49.3333 232.14 49.3333H237.527C239.647 49.3333 240.5 48.48 240.5 46.36Z" stroke="#F97316" stroke-width="1.5" stroke-linecap="round" stroke-linejoin="round"/>
<path d="M245.833 43.3335H253.833" stroke="#F97316" stroke-width="1.5" stroke-linecap="round"/>
<path d="M249.833 47.3335V39.3335" stroke="#F97316" stroke-width="1.5" stroke-linecap="round"/>
<path d="M197.921 100C196.661 100 195.731 99.634 195.131 98.902C194.543 98.17 194.249 97.186 194.249 95.95V87.976H196.535V95.95C196.535 96.406 196.559 96.73 196.607 96.922C196.667 97.114 196.787 97.246 196.967 97.318C197.159 97.378 197.477 97.408 197.921 97.408H198.569L198.677 98.74L198.569 100H197.921ZM208.213 90.046L211.093 94.384C211.537 95.056 211.759 95.806 211.759 96.634C211.759 97.39 211.573 98.026 211.201 98.542C210.793 99.094 210.205 99.49 209.437 99.73C208.681 99.97 207.667 100.09 206.395 100.09C205.267 100.09 204.163 99.904 203.083 99.532C202.075 99.844 200.995 100 199.843 100H198.385V97.408H199.951H200.023C199.543 96.736 199.303 96.01 199.303 95.23C199.303 94.498 199.471 93.82 199.807 93.196C200.155 92.56 200.623 92.056 201.211 91.684C201.811 91.312 202.471 91.126 203.191 91.126C203.887 91.126 204.529 91.312 205.117 91.684C205.705 92.056 206.167 92.554 206.503 93.178C206.839 93.802 207.007 94.48 207.007 95.212C207.007 96.064 206.749 96.832 206.233 97.516H206.305C207.241 97.516 207.925 97.474 208.357 97.39C208.789 97.306 209.077 97.18 209.221 97.012C209.341 96.868 209.401 96.706 209.401 96.526C209.401 96.262 209.293 95.974 209.077 95.662L206.287 91.468L208.213 90.046ZM201.589 95.266C201.589 95.614 201.721 95.938 201.985 96.238C202.261 96.526 202.633 96.772 203.101 96.976C203.629 96.784 204.031 96.544 204.307 96.256C204.583 95.968 204.721 95.638 204.721 95.266C204.721 94.774 204.577 94.372 204.289 94.06C204.001 93.748 203.635 93.592 203.191 93.592C202.723 93.592 202.339 93.748 202.039 94.06C201.739 94.372 201.589 94.774 201.589 95.266ZM212.998 97.408H217.984C218.764 97.408 219.154 97.024 219.154 96.256V87.976H221.44V96.49C221.44 97.282 221.266 97.942 220.918 98.47C220.57 98.998 220.138 99.388 219.622 99.64C219.106 99.88 218.602 100 218.11 100H212.998V97.408ZM215.536 88.174L216.058 96.112L213.754 96.274L213.25 88.336L215.536 88.174ZM227.206 100C225.946 100 225.016 99.634 224.416 98.902C223.828 98.17 223.534 97.186 223.534 95.95V87.976H225.82V95.95C225.82 96.406 225.844 96.73 225.892 96.922C225.952 97.114 226.072 97.246 226.252 97.318C226.444 97.378 226.762 97.408 227.206 97.408H227.854L227.962 98.74L227.854 100H227.206ZM236.081 89.182L231.041 91.396L233.813 94.222C234.173 94.582 234.443 94.984 234.623 95.428C234.803 95.86 234.893 96.304 234.893 96.76C234.893 97.336 234.755 97.87 234.479 98.362C234.215 98.854 233.819 99.25 233.291 99.55C232.775 99.85 232.169 100 231.473 100H227.459V97.408H231.527C231.839 97.408 232.079 97.348 232.247 97.228C232.427 97.096 232.517 96.928 232.517 96.724C232.517 96.472 232.391 96.22 232.139 95.968L228.557 92.368L229.115 89.47L235.145 86.806L236.081 89.182ZM244.04 100C243.296 100 242.642 99.838 242.078 99.514C241.526 99.178 241.1 98.734 240.8 98.182C240.512 97.618 240.368 97.012 240.368 96.364C240.368 96.076 240.392 95.818 240.44 95.59C240.5 95.254 240.578 94.852 240.674 94.384C240.782 93.916 240.878 93.508 240.962 93.16L243.068 93.682L242.942 94.258C242.702 95.194 242.582 95.842 242.582 96.202C242.582 96.574 242.708 96.868 242.96 97.084C243.212 97.3 243.572 97.408 244.04 97.408H251.78C252.272 97.408 252.632 97.306 252.86 97.102C253.088 96.886 253.202 96.604 253.202 96.256C253.202 95.788 253.046 94.774 252.734 93.214L254.894 92.674C255.29 94.354 255.488 95.596 255.488 96.4C255.488 97 255.35 97.576 255.074 98.128C254.81 98.68 254.414 99.13 253.886 99.478C253.358 99.826 252.716 100 251.96 100H244.04ZM246.812 102.196H249.206V104.536H246.812V102.196ZM261.255 100C259.995 100 259.065 99.634 258.465 98.902C257.877 98.17 257.583 97.186 257.583 95.95V87.976H259.869V95.95C259.869 96.406 259.893 96.73 259.941 96.922C260.001 97.114 260.121 97.246 260.301 97.318C260.493 97.378 260.811 97.408 261.255 97.408H261.903L262.011 98.74L261.903 100H261.255ZM273.311 100C272.579 100 271.949 99.85 271.421 99.55C270.905 99.25 270.503 98.812 270.215 98.236C269.159 98.812 268.121 99.25 267.101 99.55C266.081 99.85 264.983 100 263.807 100H261.647V97.408H263.807C264.935 97.408 265.997 97.264 266.993 96.976C267.989 96.688 269.015 96.262 270.071 95.698C267.539 94.822 266.063 94.384 265.643 94.384C265.391 94.384 265.181 94.462 265.013 94.618C264.845 94.762 264.695 95.014 264.563 95.374L262.547 94.726C262.823 93.79 263.231 93.076 263.771 92.584C264.311 92.092 264.935 91.846 265.643 91.846C266.135 91.846 266.909 92.032 267.965 92.404C269.033 92.776 270.437 93.322 272.177 94.042L272.519 96.868L272.015 97.174C272.423 97.33 272.831 97.408 273.239 97.408H274.229L274.391 98.668L274.229 100H273.311ZM264.635 87.94H267.029V90.28H264.635V87.94ZM279.694 93.97V96.58C279.694 96.892 279.778 97.108 279.946 97.228C280.114 97.348 280.378 97.408 280.738 97.408H281.71L281.818 98.776L281.71 100H280.738C280.366 100 279.976 99.928 279.568 99.784C279.16 99.628 278.8 99.406 278.488 99.118C278.152 99.406 277.768 99.628 277.336 99.784C276.916 99.928 276.484 100 276.04 100H273.988V97.408H276.04C276.544 97.408 276.898 97.342 277.102 97.21C277.306 97.066 277.408 96.826 277.408 96.49V93.97H279.694ZM274.456 89.722H276.598V91.864H274.456V89.722ZM277.822 89.722H279.982V91.864H277.822V89.722ZM281.511 97.408H283.257C284.181 97.408 284.625 97.048 284.589 96.328C284.553 95.8 284.397 94.804 284.121 93.34L286.263 92.8C286.671 94.564 286.875 95.824 286.875 96.58C286.875 97.168 286.743 97.726 286.479 98.254C286.227 98.77 285.837 99.19 285.309 99.514C284.793 99.838 284.169 100 283.437 100H281.511V97.408ZM283.077 88.462H285.471V90.802H283.077V88.462ZM289.07 87.976H291.356V100H289.07V87.976Z" fill="#F97316"/>
</svg>
