<svg width="500" height="107" viewBox="0 0 500 107" fill="none" xmlns="http://www.w3.org/2000/svg">
<rect x="205.5" y="1" width="70" height="70" rx="35" stroke="#A3A3A3" stroke-width="2"/>
<path d="M253.833 31.0265V25.6398C253.833 23.5198 252.98 22.6665 250.86 22.6665H245.473C243.353 22.6665 242.5 23.5198 242.5 25.6398V31.0265C242.5 33.1465 243.353 33.9998 245.473 33.9998H250.86C252.98 33.9998 253.833 33.1465 253.833 31.0265Z" stroke="#A3A3A3" stroke-width="1.5" stroke-linecap="round" stroke-linejoin="round"/>
<path d="M238.5 31.3598V25.3065C238.5 23.4265 237.647 22.6665 235.527 22.6665H230.14C228.02 22.6665 227.167 23.4265 227.167 25.3065V31.3465C227.167 33.2398 228.02 33.9865 230.14 33.9865H235.527C237.647 33.9998 238.5 33.2398 238.5 31.3598Z" stroke="#A3A3A3" stroke-width="1.5" stroke-linecap="round" stroke-linejoin="round"/>
<path d="M238.5 46.36V40.9733C238.5 38.8533 237.647 38 235.527 38H230.14C228.02 38 227.167 38.8533 227.167 40.9733V46.36C227.167 48.48 228.02 49.3333 230.14 49.3333H235.527C237.647 49.3333 238.5 48.48 238.5 46.36Z" stroke="#A3A3A3" stroke-width="1.5" stroke-linecap="round" stroke-linejoin="round"/>
<path d="M243.833 43.3335H251.833" stroke="#A3A3A3" stroke-width="1.5" stroke-linecap="round"/>
<path d="M247.833 47.3335V39.3335" stroke="#A3A3A3" stroke-width="1.5" stroke-linecap="round"/>
<path d="M197.628 100C196.44 100 195.618 99.682 195.162 99.046C194.706 98.398 194.478 97.45 194.478 96.202L194.46 88.318H195.864L195.882 96.202C195.882 96.85 195.918 97.318 195.99 97.606C196.074 97.894 196.23 98.098 196.458 98.218C196.698 98.326 197.088 98.38 197.628 98.38H197.898L197.988 99.208L197.898 100H197.628ZM206.436 91.162L209.172 95.374C209.568 95.986 209.766 96.61 209.766 97.246C209.766 97.894 209.55 98.464 209.118 98.956C208.782 99.328 208.302 99.604 207.678 99.784C207.054 99.952 206.238 100.036 205.23 100.036C204.246 100.036 203.268 99.862 202.296 99.514C201.312 99.838 200.256 100 199.128 100H197.724V98.38H199.398C199.614 98.38 199.902 98.368 200.262 98.344C199.434 97.636 199.02 96.802 199.02 95.842C199.02 95.194 199.17 94.6 199.47 94.06C199.77 93.52 200.172 93.094 200.676 92.782C201.192 92.47 201.756 92.314 202.368 92.314C202.956 92.314 203.502 92.47 204.006 92.782C204.51 93.094 204.912 93.52 205.212 94.06C205.512 94.6 205.662 95.188 205.662 95.824C205.662 96.82 205.254 97.666 204.438 98.362C204.558 98.374 204.75 98.38 205.014 98.38C206.766 98.38 207.81 98.206 208.146 97.858C208.29 97.714 208.362 97.528 208.362 97.3C208.362 97.024 208.236 96.682 207.984 96.274L205.248 92.026L206.436 91.162ZM200.424 95.932C200.424 96.88 201.03 97.57 202.242 98.002C202.878 97.786 203.37 97.504 203.718 97.156C204.078 96.808 204.258 96.4 204.258 95.932C204.258 95.344 204.084 94.864 203.736 94.492C203.4 94.12 202.938 93.934 202.35 93.934C201.762 93.934 201.294 94.126 200.946 94.51C200.598 94.882 200.424 95.356 200.424 95.932ZM211.564 98.38H216.46C217 98.38 217.402 98.266 217.666 98.038C217.942 97.798 218.08 97.384 218.08 96.796V88.318H219.466V96.796C219.466 97.528 219.31 98.134 218.998 98.614C218.698 99.094 218.326 99.448 217.882 99.676C217.438 99.892 217.006 100 216.586 100H211.564V98.38ZM213.58 88.516L214.066 96.958L212.662 97.066L212.176 88.624L213.58 88.516ZM225.155 100C223.967 100 223.145 99.682 222.689 99.046C222.233 98.398 222.005 97.45 222.005 96.202L221.987 88.318H223.391L223.409 96.202C223.409 96.85 223.445 97.318 223.517 97.606C223.601 97.894 223.757 98.098 223.985 98.218C224.225 98.326 224.615 98.38 225.155 98.38H225.425L225.515 99.208L225.425 100H225.155ZM233.694 89.218L228.024 91.72L231.3 95.05C231.6 95.362 231.828 95.704 231.984 96.076C232.14 96.448 232.218 96.832 232.218 97.228C232.218 97.708 232.098 98.164 231.858 98.596C231.63 99.016 231.294 99.358 230.85 99.622C230.406 99.874 229.878 100 229.266 100H225.252V98.38H229.266C229.794 98.38 230.196 98.284 230.472 98.092C230.76 97.9 230.904 97.648 230.904 97.336C230.904 96.964 230.7 96.574 230.292 96.166L226.494 92.35L226.926 90.46L233.118 87.742L233.694 89.218ZM242.123 100C241.475 100 240.899 99.862 240.395 99.586C239.891 99.298 239.495 98.92 239.207 98.452C238.931 97.972 238.793 97.444 238.793 96.868C238.793 96.7 238.799 96.574 238.811 96.49C238.871 95.938 239.069 94.966 239.405 93.574L240.719 93.916C240.695 94.024 240.599 94.438 240.431 95.158C240.275 95.866 240.185 96.364 240.161 96.652C240.149 96.712 240.143 96.79 240.143 96.886C240.143 97.354 240.311 97.72 240.647 97.984C240.995 98.248 241.487 98.38 242.123 98.38H249.899C250.487 98.38 250.925 98.218 251.213 97.894C251.513 97.57 251.663 97.18 251.663 96.724C251.663 96.196 251.477 95.098 251.105 93.43L252.473 93.07C252.869 94.786 253.067 96.004 253.067 96.724C253.067 97.228 252.941 97.738 252.689 98.254C252.437 98.758 252.071 99.178 251.591 99.514C251.111 99.838 250.547 100 249.899 100H242.123ZM245.021 102.736H246.821V104.536H245.021V102.736ZM258.747 100C257.559 100 256.737 99.682 256.281 99.046C255.825 98.398 255.597 97.45 255.597 96.202L255.579 88.318H256.983L257.001 96.202C257.001 96.85 257.037 97.318 257.109 97.606C257.193 97.894 257.349 98.098 257.577 98.218C257.817 98.326 258.207 98.38 258.747 98.38H259.017L259.107 99.208L259.017 100H258.747ZM269.428 100C268.828 100 268.282 99.856 267.79 99.568C267.298 99.28 266.968 98.842 266.8 98.254C265.816 98.818 264.874 99.25 263.974 99.55C263.074 99.85 262.084 100 261.004 100H258.772V98.38H261.004C261.832 98.38 262.6 98.278 263.308 98.074C264.028 97.858 264.67 97.6 265.234 97.3C265.81 97 266.596 96.55 267.592 95.95C266.188 95.362 265.114 94.93 264.37 94.654C263.638 94.378 263.128 94.24 262.84 94.24C262.48 94.24 262.198 94.324 261.994 94.492C261.802 94.648 261.616 94.972 261.436 95.464L260.068 95.032C260.62 93.424 261.544 92.62 262.84 92.62C263.248 92.62 263.872 92.776 264.712 93.088C265.564 93.4 266.746 93.874 268.258 94.51L269.14 94.87L269.5 96.58L267.88 97.588C268.12 98.116 268.636 98.38 269.428 98.38H271.21L271.336 99.19L271.21 100H269.428ZM262.228 89.11H264.028V90.91H262.228V89.11ZM276.155 94.456V97.012C276.155 97.504 276.275 97.858 276.515 98.074C276.755 98.278 277.133 98.38 277.649 98.38H278.567L278.657 99.226L278.567 100H277.649C277.265 100 276.863 99.904 276.443 99.712C276.023 99.52 275.669 99.232 275.381 98.848C275.093 99.22 274.727 99.508 274.283 99.712C273.839 99.904 273.389 100 272.933 100H271.025V98.38H272.933C273.545 98.38 274.001 98.254 274.301 98.002C274.601 97.75 274.751 97.348 274.751 96.796V94.456H276.155ZM271.925 90.622H273.725V92.422H271.925V90.622ZM275.147 90.622H276.947V92.422H275.147V90.622ZM278.39 98.38H280.37C280.886 98.38 281.27 98.272 281.522 98.056C281.774 97.828 281.9 97.522 281.9 97.138C281.9 96.826 281.84 96.34 281.72 95.68C281.612 95.008 281.486 94.366 281.342 93.754L282.71 93.394C282.854 94.006 282.986 94.678 283.106 95.41C283.238 96.142 283.304 96.712 283.304 97.12C283.304 97.612 283.19 98.08 282.962 98.524C282.734 98.968 282.398 99.328 281.954 99.604C281.51 99.868 280.982 100 280.37 100H278.39V98.38ZM280.334 89.47H282.134V91.27H280.334V89.47ZM285.813 88.318H287.217L287.235 100H285.831L285.813 88.318Z" fill="#A3A3A3"/>
<rect x="14" y="1" width="70" height="70" rx="35" stroke="#A3A3A3" stroke-width="2"/>
<path d="M57.0533 38.0668C56.4933 38.6135 56.1733 39.4002 56.2533 40.2402C56.3733 41.6802 57.6933 42.7335 59.1333 42.7335H61.6666V44.3202C61.6666 47.0802 59.4133 49.3335 56.6533 49.3335H41.3466C38.5866 49.3335 36.3333 47.0802 36.3333 44.3202V35.3468C36.3333 32.5868 38.5866 30.3335 41.3466 30.3335H56.6533C59.4133 30.3335 61.6666 32.5868 61.6666 35.3468V37.2668H58.9733C58.2266 37.2668 57.5466 37.5601 57.0533 38.0668Z" stroke="#A3A3A3" stroke-width="1.5" stroke-linecap="round" stroke-linejoin="round"/>
<path d="M36.3333 36.5467V30.4535C36.3333 28.8668 37.3066 27.4534 38.7866 26.8934L49.3733 22.8934C51.0266 22.2667 52.8 23.4935 52.8 25.2668V30.3334" stroke="#A3A3A3" stroke-width="1.5" stroke-linecap="round" stroke-linejoin="round"/>
<path d="M63.0784 38.627V41.3738C63.0784 42.1071 62.4917 42.7071 61.7451 42.7337H59.1317C57.6917 42.7337 56.3717 41.6804 56.2517 40.2404C56.1717 39.4004 56.4917 38.6137 57.0517 38.0671C57.5451 37.5604 58.2251 37.2671 58.9717 37.2671H61.7451C62.4917 37.2938 63.0784 37.8937 63.0784 38.627Z" stroke="#A3A3A3" stroke-width="1.5" stroke-linecap="round" stroke-linejoin="round"/>
<path d="M42.3333 36H51.6666" stroke="#A3A3A3" stroke-width="1.5" stroke-linecap="round" stroke-linejoin="round"/>
<path d="M3.61447 95.338C2.89447 96.886 2.53447 98.176 2.53447 99.208C2.53447 100.3 2.80447 101.188 3.34447 101.872C3.89647 102.568 4.70047 102.916 5.75647 102.916H7.70047C8.61247 102.916 9.35047 102.778 9.91447 102.502C10.4785 102.226 10.7605 101.878 10.7605 101.458C10.7605 101.11 10.5445 100.816 10.1125 100.576C9.42847 100.192 8.27047 100 6.63847 100V98.38H12.6145L12.7045 99.19L12.6145 100H11.6245C11.8045 100.144 11.9425 100.336 12.0385 100.576C12.1345 100.816 12.1825 101.08 12.1825 101.368C12.1825 101.884 12.0325 102.382 11.7325 102.862C11.4325 103.342 10.9465 103.738 10.2745 104.05C9.61447 104.374 8.75647 104.536 7.70047 104.536H5.75647C4.80847 104.536 3.98047 104.29 3.27247 103.798C2.57647 103.306 2.04247 102.652 1.67047 101.836C1.31047 101.032 1.13047 100.168 1.13047 99.244C1.13047 97.96 1.52647 96.43 2.31847 94.654L3.61447 95.338ZM18.1625 89.218L12.4925 91.72L15.1205 95.05L15.1745 95.122C16.0145 96.202 16.6085 96.946 16.9565 97.354C17.3165 97.75 17.6465 98.02 17.9465 98.164C18.2585 98.308 18.6665 98.38 19.1705 98.38H19.5125L19.6025 99.19L19.5125 100H19.1705C18.4385 100 17.8325 99.868 17.3525 99.604C16.8845 99.34 16.3565 98.86 15.7685 98.164C15.6005 98.716 15.2885 99.16 14.8325 99.496C14.3765 99.832 13.7945 100 13.0865 100H9.72055V98.38H13.0865C13.6025 98.38 13.9925 98.29 14.2565 98.11C14.5325 97.93 14.6705 97.69 14.6705 97.39C14.6705 97.018 14.4845 96.61 14.1125 96.166L10.9625 92.35L11.3945 90.46L17.5865 87.742L18.1625 89.218ZM19.3358 98.38H21.3158C21.8318 98.38 22.2158 98.272 22.4678 98.056C22.7198 97.828 22.8458 97.522 22.8458 97.138C22.8458 96.826 22.7858 96.34 22.6658 95.68C22.5578 95.008 22.4318 94.366 22.2878 93.754L23.6558 93.394C23.7998 94.006 23.9318 94.678 24.0518 95.41C24.1838 96.142 24.2498 96.712 24.2498 97.12C24.2498 97.612 24.1358 98.08 23.9078 98.524C23.6798 98.968 23.3438 99.328 22.8998 99.604C22.4558 99.868 21.9278 100 21.3158 100H19.3358V98.38ZM21.2798 89.47H23.0798V91.27H21.2798V89.47ZM29.9267 100C28.7387 100 27.9167 99.682 27.4607 99.046C27.0047 98.398 26.7767 97.45 26.7767 96.202L26.7587 88.318H28.1627L28.1807 96.202C28.1807 96.85 28.2167 97.318 28.2887 97.606C28.3727 97.894 28.5287 98.098 28.7567 98.218C28.9967 98.326 29.3867 98.38 29.9267 98.38H30.1967L30.2867 99.208L30.1967 100H29.9267ZM30.0233 98.38H32.0033C32.5193 98.38 32.9033 98.272 33.1553 98.056C33.4073 97.828 33.5333 97.522 33.5333 97.138C33.5333 96.826 33.4733 96.34 33.3533 95.68C33.2453 95.008 33.1193 94.366 32.9753 93.754L34.3433 93.394C34.4873 94.006 34.6193 94.678 34.7393 95.41C34.8713 96.142 34.9373 96.712 34.9373 97.12C34.9373 97.612 34.8233 98.08 34.5953 98.524C34.3673 98.968 34.0313 99.328 33.5873 99.604C33.1433 99.868 32.6153 100 32.0033 100H30.0233V98.38ZM30.4733 102.736H32.2733V104.536H30.4733V102.736ZM44.5562 100C43.9082 100 43.3322 99.862 42.8282 99.586C42.3242 99.298 41.9282 98.92 41.6402 98.452C41.3642 97.972 41.2262 97.444 41.2262 96.868C41.2262 96.7 41.2322 96.574 41.2442 96.49C41.3042 95.938 41.5022 94.966 41.8382 93.574L43.1522 93.916C43.1282 94.024 43.0322 94.438 42.8642 95.158C42.7082 95.866 42.6182 96.364 42.5942 96.652C42.5822 96.712 42.5762 96.79 42.5762 96.886C42.5762 97.354 42.7442 97.72 43.0802 97.984C43.4282 98.248 43.9202 98.38 44.5562 98.38H52.3322C52.9202 98.38 53.3582 98.218 53.6462 97.894C53.9462 97.57 54.0962 97.18 54.0962 96.724C54.0962 96.196 53.9102 95.098 53.5382 93.43L54.9062 93.07C55.3022 94.786 55.5002 96.004 55.5002 96.724C55.5002 97.228 55.3742 97.738 55.1222 98.254C54.8702 98.758 54.5042 99.178 54.0242 99.514C53.5442 99.838 52.9802 100 52.3322 100H44.5562ZM45.9062 92.242H47.7062V94.042H45.9062V92.242ZM49.1282 92.242H50.9282V94.042H49.1282V92.242ZM61.1806 100C59.9926 100 59.1706 99.682 58.7146 99.046C58.2586 98.398 58.0306 97.45 58.0306 96.202L58.0126 88.318H59.4166L59.4346 96.202C59.4346 96.85 59.4706 97.318 59.5426 97.606C59.6266 97.894 59.7826 98.098 60.0106 98.218C60.2506 98.326 60.6406 98.38 61.1806 98.38H61.4506L61.5406 99.208L61.4506 100H61.1806ZM69.8632 100H61.2772V98.38H64.1932C63.5572 97.744 63.2392 96.994 63.2392 96.13C63.2392 95.53 63.3832 94.984 63.6712 94.492C63.9592 93.988 64.3492 93.592 64.8412 93.304C65.3332 93.004 65.8672 92.854 66.4432 92.854C66.9832 92.854 67.4332 92.932 67.7932 93.088C68.1532 93.244 68.6032 93.508 69.1432 93.88L69.5212 94.132L68.8192 95.284C68.1352 94.912 67.6552 94.672 67.3792 94.564C67.1152 94.444 66.8032 94.384 66.4432 94.384C65.9512 94.384 65.5252 94.552 65.1652 94.888C64.8172 95.224 64.6432 95.638 64.6432 96.13C64.6432 96.79 64.9312 97.33 65.5072 97.75C66.0952 98.17 66.9892 98.38 68.1892 98.38H69.8632V100ZM81.0675 100C80.6835 100 80.2995 99.91 79.9155 99.73C79.5315 99.538 79.2015 99.256 78.9255 98.884C78.6375 99.256 78.2895 99.538 77.8815 99.73C77.4735 99.91 77.0775 100 76.6935 100H71.6715V98.38H76.5675C77.1075 98.38 77.5095 98.266 77.7735 98.038C78.0495 97.798 78.1875 97.384 78.1875 96.796V88.318H79.5735V96.796C79.5735 97.312 79.6995 97.708 79.9515 97.984C80.2035 98.248 80.5755 98.38 81.0675 98.38H81.7335L81.8235 99.19L81.7335 100H81.0675ZM73.6875 88.516L74.1735 96.958L72.7695 97.066L72.2835 88.624L73.6875 88.516ZM81.5448 98.38H83.6328L84.1008 97.678L84.0828 88.318H85.4868L85.5048 95.536L85.7208 95.194C86.3328 94.27 86.9208 93.61 87.4848 93.214C88.0608 92.818 88.7508 92.62 89.5548 92.62C90.2268 92.62 90.8028 92.794 91.2828 93.142C91.7748 93.49 92.1468 93.958 92.3988 94.546C92.6628 95.122 92.7948 95.752 92.7948 96.436C92.7948 97.156 92.6268 97.786 92.2908 98.326C91.9548 98.866 91.5048 99.28 90.9408 99.568C90.3768 99.856 89.7648 100 89.1048 100H81.5448V98.38ZM89.1048 98.38C89.8248 98.38 90.3828 98.218 90.7788 97.894C91.1868 97.558 91.3908 97.072 91.3908 96.436C91.3908 94.972 90.7788 94.24 89.5548 94.24C89.1708 94.24 88.8468 94.294 88.5828 94.402C88.3188 94.51 88.0608 94.696 87.8088 94.96C87.5568 95.224 87.2448 95.614 86.8728 96.13L85.2708 98.38H89.1048ZM95.3134 88.318H96.7174L96.7354 100H95.3314L95.3134 88.318Z" fill="#A3A3A3"/>
<path d="M276 35L396 35" stroke="#A3A3A3" stroke-width="2" stroke-linecap="round" stroke-dasharray="6 6"/>
<path d="M83.3592 35L201.702 35" stroke="#A3A3A3" stroke-width="2" stroke-linecap="round" stroke-dasharray="6 6"/>
<rect x="397" y="1" width="70" height="70" rx="35" stroke="#F97316" stroke-width="2"/>
<path d="M424.933 32.3467L432 36.44L439.013 32.3733" stroke="#F97316" stroke-width="1.5" stroke-linecap="round" stroke-linejoin="round"/>
<path d="M432 43.6934V36.4268" stroke="#F97316" stroke-width="1.5" stroke-linecap="round" stroke-linejoin="round"/>
<path d="M430.347 28.3868L426.08 30.7601C425.12 31.2935 424.32 32.6401 424.32 33.7468V38.2668C424.32 39.3735 425.107 40.7201 426.08 41.2535L430.347 43.6268C431.253 44.1335 432.747 44.1335 433.667 43.6268L437.933 41.2535C438.893 40.7201 439.693 39.3735 439.693 38.2668V33.7335C439.693 32.6268 438.907 31.2801 437.933 30.7468L433.667 28.3735C432.747 27.8668 431.253 27.8668 430.347 28.3868Z" stroke="#F97316" stroke-width="1.5" stroke-linecap="round" stroke-linejoin="round"/>
<path d="M445.333 40C445.333 45.16 441.16 49.3333 436 49.3333L437.4 47" stroke="#F97316" stroke-width="1.5" stroke-linecap="round" stroke-linejoin="round"/>
<path d="M418.667 31.9998C418.667 26.8398 422.84 22.6665 428 22.6665L426.6 24.9998" stroke="#F97316" stroke-width="1.5" stroke-linecap="round" stroke-linejoin="round"/>
<path d="M369.017 95.464C368.369 96.928 368.045 98.134 368.045 99.082C368.045 100.042 368.267 100.756 368.711 101.224C369.155 101.704 369.887 101.944 370.907 101.944H372.455C374.195 101.944 375.065 101.62 375.065 100.972C375.065 100.672 374.837 100.456 374.381 100.324C373.757 100.132 372.899 100.024 371.807 100V97.408H377.765L377.909 98.668L377.765 100H377.045C377.225 100.264 377.315 100.612 377.315 101.044C377.303 101.656 377.087 102.226 376.667 102.754C376.259 103.294 375.689 103.726 374.957 104.05C374.225 104.374 373.391 104.536 372.455 104.536H370.907C369.851 104.536 368.933 104.296 368.153 103.816C367.385 103.336 366.797 102.682 366.389 101.854C365.993 101.038 365.795 100.126 365.795 99.118C365.795 98.422 365.915 97.654 366.155 96.814C366.407 95.974 366.707 95.182 367.055 94.438L369.017 95.464ZM386.206 100H377.584V97.408H379.618C379.27 96.856 379.096 96.268 379.096 95.644C379.096 94.972 379.258 94.348 379.582 93.772C379.906 93.184 380.35 92.722 380.914 92.386C381.478 92.038 382.09 91.864 382.75 91.864C383.182 91.864 383.56 91.912 383.884 92.008C384.22 92.104 384.514 92.224 384.766 92.368C385.03 92.512 385.462 92.77 386.062 93.142L385.018 95.05C384.394 94.702 383.95 94.474 383.686 94.366C383.422 94.258 383.128 94.204 382.804 94.204C382.384 94.204 382.024 94.342 381.724 94.618C381.424 94.882 381.274 95.212 381.274 95.608C381.274 96.148 381.532 96.586 382.048 96.922C382.564 97.246 383.38 97.408 384.496 97.408H386.206V100ZM390.304 102.07C391.048 102.07 391.612 102.004 391.996 101.872C392.38 101.752 392.644 101.542 392.788 101.242C392.944 100.954 393.034 100.54 393.058 100H391.51C390.37 100 389.464 99.67 388.792 99.01C388.132 98.338 387.802 97.402 387.802 96.202C387.802 95.35 387.958 94.594 388.27 93.934C388.594 93.274 389.032 92.764 389.584 92.404C390.148 92.032 390.784 91.846 391.492 91.846C392.26 91.846 392.932 92.026 393.508 92.386C394.096 92.746 394.546 93.256 394.858 93.916C395.182 94.576 395.344 95.338 395.344 96.202V97.408H396.334L396.478 98.722L396.334 100H395.344C395.296 101.404 394.864 102.532 394.048 103.384C393.232 104.236 391.984 104.662 390.304 104.662H388.162V102.07H390.304ZM389.998 96.076C389.998 96.568 390.118 96.934 390.358 97.174C390.598 97.402 390.982 97.516 391.51 97.516H393.058V96.148C393.058 94.9 392.536 94.276 391.492 94.276C391 94.276 390.628 94.444 390.376 94.78C390.124 95.116 389.998 95.548 389.998 96.076ZM396.074 97.408H398.234C399.362 97.408 400.424 97.264 401.42 96.976C402.416 96.688 403.442 96.262 404.498 95.698C401.966 94.822 400.49 94.384 400.07 94.384C399.818 94.384 399.608 94.462 399.44 94.618C399.272 94.762 399.122 95.014 398.99 95.374L396.974 94.726C397.25 93.79 397.658 93.076 398.198 92.584C398.738 92.092 399.362 91.846 400.07 91.846C400.562 91.846 401.336 92.032 402.392 92.404C403.46 92.776 404.864 93.322 406.604 94.042L406.946 96.868C405.818 97.576 404.84 98.14 404.012 98.56C403.184 98.98 402.29 99.328 401.33 99.604C400.37 99.868 399.338 100 398.234 100H396.074V97.408ZM400.772 101.998H403.166V104.338H400.772V101.998ZM412.381 93.97V96.58C412.381 96.892 412.459 97.108 412.615 97.228C412.783 97.348 413.047 97.408 413.407 97.408H413.749L413.857 98.722L413.749 100H413.407C413.011 100 412.663 99.904 412.363 99.712C412.243 101.248 411.739 102.436 410.851 103.276C409.963 104.116 408.739 104.536 407.179 104.536H406.045V101.944H407.179C407.935 101.944 408.517 101.854 408.925 101.674C409.345 101.506 409.639 101.212 409.807 100.792C409.987 100.384 410.077 99.802 410.077 99.046V93.97H412.381ZM413.566 97.408H414.034C414.274 97.408 414.454 97.354 414.574 97.246C414.706 97.126 414.802 96.934 414.862 96.67L415.33 94.942C415.594 93.898 416.038 93.1 416.662 92.548C417.286 91.996 418.036 91.72 418.912 91.72C419.608 91.72 420.226 91.912 420.766 92.296C421.318 92.668 421.75 93.19 422.062 93.862C422.374 94.522 422.53 95.266 422.53 96.094C422.53 97.09 422.368 97.906 422.044 98.542C421.72 99.166 421.312 99.622 420.82 99.91C420.34 100.186 419.836 100.324 419.308 100.324C418.9 100.324 418.468 100.24 418.012 100.072C417.568 99.916 416.902 99.628 416.014 99.208C415.738 99.46 415.432 99.658 415.096 99.802C414.76 99.934 414.418 100 414.07 100H413.566V97.408ZM417.112 97.03C417.76 97.33 418.24 97.534 418.552 97.642C418.864 97.75 419.146 97.804 419.398 97.804C420.058 97.804 420.388 97.24 420.388 96.112C420.388 95.5 420.256 95.032 419.992 94.708C419.728 94.372 419.386 94.204 418.966 94.204C418.618 94.204 418.312 94.33 418.048 94.582C417.784 94.834 417.592 95.2 417.472 95.68L417.112 97.03ZM431.605 100C430.861 100 430.213 99.838 429.661 99.514C429.109 99.178 428.683 98.734 428.383 98.182C428.095 97.63 427.951 97.03 427.951 96.382C427.951 96.094 427.975 95.83 428.023 95.59C428.083 95.254 428.161 94.852 428.257 94.384C428.353 93.916 428.443 93.508 428.527 93.16L430.633 93.682L430.507 94.258C430.267 95.194 430.147 95.842 430.147 96.202C430.147 96.574 430.273 96.868 430.525 97.084C430.777 97.3 431.137 97.408 431.605 97.408H439.435C439.927 97.408 440.275 97.342 440.479 97.21C440.683 97.066 440.785 96.826 440.785 96.49V93.97H443.089V96.58C443.089 96.892 443.167 97.108 443.323 97.228C443.491 97.348 443.755 97.408 444.115 97.408H444.655L444.763 98.74L444.655 100H444.115C443.731 100 443.335 99.928 442.927 99.784C442.531 99.628 442.177 99.394 441.865 99.082C441.589 99.394 441.241 99.628 440.821 99.784C440.401 99.928 439.939 100 439.435 100H431.605ZM433.045 91.342H435.187V93.502H433.045V91.342ZM436.429 91.342H438.571V93.502H436.429V91.342ZM444.469 97.408H445.783C446.203 97.408 446.503 97.324 446.683 97.156C446.875 96.976 446.971 96.694 446.971 96.31V93.97H449.257V96.364C449.257 96.724 449.353 96.988 449.545 97.156C449.749 97.324 450.025 97.408 450.373 97.408C451.153 97.408 451.543 97.03 451.543 96.274V93.97H453.829L453.811 96.364C453.811 97.06 454.171 97.408 454.891 97.408C455.263 97.408 455.557 97.306 455.773 97.102C456.001 96.898 456.091 96.628 456.043 96.292C455.875 95.2 455.701 94.216 455.521 93.34L457.681 92.8C458.089 94.564 458.293 95.818 458.293 96.562C458.293 97.162 458.173 97.726 457.933 98.254C457.693 98.77 457.321 99.19 456.817 99.514C456.313 99.838 455.671 100 454.891 100C454.435 100 454.015 99.91 453.631 99.73C453.247 99.538 452.923 99.286 452.659 98.974C452.383 99.286 452.041 99.538 451.633 99.73C451.237 99.91 450.793 100 450.301 100C449.893 100 449.461 99.898 449.005 99.694C448.561 99.49 448.237 99.25 448.033 98.974C447.817 99.274 447.499 99.52 447.079 99.712C446.671 99.904 446.209 100 445.693 100H444.469V97.408ZM460.605 87.976H462.891V100H460.605V87.976ZM467.437 102.07C468.181 102.07 468.745 102.004 469.129 101.872C469.513 101.752 469.777 101.542 469.921 101.242C470.077 100.954 470.167 100.54 470.191 100H468.643C467.503 100 466.597 99.67 465.925 99.01C465.265 98.338 464.935 97.402 464.935 96.202C464.935 95.35 465.091 94.594 465.403 93.934C465.727 93.274 466.165 92.764 466.717 92.404C467.281 92.032 467.917 91.846 468.625 91.846C469.393 91.846 470.065 92.026 470.641 92.386C471.229 92.746 471.679 93.256 471.991 93.916C472.315 94.576 472.477 95.338 472.477 96.202V97.408H473.467L473.611 98.722L473.467 100H472.477C472.429 101.404 471.997 102.532 471.181 103.384C470.365 104.236 469.117 104.662 467.437 104.662H465.295V102.07H467.437ZM467.131 96.076C467.131 96.568 467.251 96.934 467.491 97.174C467.731 97.402 468.115 97.516 468.643 97.516H470.191V96.148C470.191 94.9 469.669 94.276 468.625 94.276C468.133 94.276 467.761 94.444 467.509 94.78C467.257 95.116 467.131 95.548 467.131 96.076ZM473.207 97.408H475.367C476.495 97.408 477.557 97.264 478.553 96.976C479.549 96.688 480.575 96.262 481.631 95.698C479.099 94.822 477.623 94.384 477.203 94.384C476.951 94.384 476.741 94.462 476.573 94.618C476.405 94.762 476.255 95.014 476.123 95.374L474.107 94.726C474.383 93.79 474.791 93.076 475.331 92.584C475.871 92.092 476.495 91.846 477.203 91.846C477.695 91.846 478.469 92.032 479.525 92.404C480.593 92.776 481.997 93.322 483.737 94.042L484.079 96.868C482.951 97.576 481.973 98.14 481.145 98.56C480.317 98.98 479.423 99.328 478.463 99.604C477.503 99.868 476.471 100 475.367 100H473.207V97.408ZM476.195 87.94H478.589V90.28H476.195V87.94ZM489.514 93.97V99.046C489.514 100.774 489.064 102.118 488.164 103.078C487.264 104.05 485.98 104.536 484.312 104.536H483.178V101.944H484.312C485.068 101.944 485.65 101.854 486.058 101.674C486.478 101.506 486.772 101.212 486.94 100.792C487.12 100.384 487.21 99.802 487.21 99.046V93.97H489.514ZM496.491 91.684C497.835 93.772 498.471 94.762 498.399 94.654C498.867 95.41 499.101 96.16 499.101 96.904C499.101 97.552 498.933 98.11 498.597 98.578C498.237 99.094 497.793 99.46 497.265 99.676C496.749 99.892 496.131 100 495.411 100H494.457C493.701 100 493.035 99.88 492.459 99.64C491.883 99.388 491.433 99.118 491.109 98.83L492.189 96.76C492.417 96.904 492.717 97.048 493.089 97.192C493.473 97.336 493.935 97.408 494.475 97.408H495.357C495.765 97.408 496.071 97.384 496.275 97.336C496.479 97.276 496.629 97.174 496.725 97.03C496.785 96.934 496.815 96.838 496.815 96.742C496.815 96.55 496.707 96.286 496.491 95.95C495.735 94.798 494.817 93.43 493.737 91.846L495.663 90.406L496.491 91.684Z" fill="#F97316"/>
</svg>
